<?xml version="1.0" encoding="utf-8"?>
<!-- Generator: Adobe Illustrator 24.3.0, SVG Export Plug-In . SVG Version: 6.00 Build 0)  -->
<svg version="1.1" id="Layer_1" xmlns="http://www.w3.org/2000/svg" xmlns:xlink="http://www.w3.org/1999/xlink" x="0px" y="0px"
	 viewBox="0 0 358.2 103.3" style="enable-background:new 0 0 358.2 103.3;" xml:space="preserve">
<style type="text/css">
	.st0{fill:#000222;}
</style>
<path class="st0" d="M144.8,18.7v6.2h-1.3c-0.9-4.7-3.5-7.1-7.6-7.1c-5.9,0-8.8,5.7-8.8,12.7c0,7.6,3.2,13.6,9.1,13.6
	c4.1,0,6.7-2.4,8-8.2h1.4l-0.6,7.4c-2.7,1.6-5.9,2.4-9.1,2.3c-8.6,0-14.1-5.7-14.1-14c0-9.4,6-15.4,13.9-15.4
	C139,16.2,142.1,17.1,144.8,18.7z M149.9,17.4l-2.6-1.4v-0.6l6.5-2h0.6v14c1.8-2.1,4.2-3.9,7.5-3.9c3.8,0,5.7,2.2,5.7,6.7v12
	c0,1.5,0.6,1.8,2.7,1.9v1.2h-9.9v-1.1c2-0.1,2.7-0.4,2.7-1.9V30.3c0-2.7-1.1-4-3.4-4c-1.9,0.1-3.7,0.9-5.1,2.2v13.7
	c0,1.5,0.6,1.8,2.6,1.9v1.2h-9.9v-1.1c2-0.1,2.7-0.4,2.7-1.9L149.9,17.4z M188.4,40.8c0,1.6,0.3,2.5,1.5,2.5c0.6,0,1.2-0.2,1.8-0.5
	l0.2,0.7c-1,1.4-2.6,2.2-4.2,2.2c-2.1,0-3.4-1.4-3.7-3.6c-1.4,1.7-3.6,3.6-6.4,3.6c-3.3,0-5.3-2-5.3-5.2c0-3.5,2.5-4.9,5.7-6.1
	l6-2.2v-3.1c0-2.6-0.9-4.4-3.4-4.4c-2.2,0-3.1,1.5-3.1,3.6c0,0.8,0.1,1.5,0.3,2.3l-2.7,0.4c-1.1-0.3-1.8-1.3-1.7-2.4
	c0-3.2,3.3-5,7.6-5c4.9,0,7.5,2,7.5,6.4L188.4,40.8z M183.8,41.1v-7.7l-4.3,1.8c-1.9,0.7-3,1.8-3,4s1.1,3.7,3.4,3.7
	C181.3,42.9,182.4,42.3,183.8,41.1L183.8,41.1z M200.2,42c0,1.6,0.9,1.9,3.6,2.1v1.2H193v-1.1c2-0.1,2.7-0.4,2.7-1.9V27.7l-2.6-1.4
	v-0.6l6.6-2.1h0.7l-0.2,5.9c2.1-4.3,3.2-5.9,5.5-5.9c0.6,0,1.2,0.2,1.7,0.6v3.7h-0.7c-2.5,0-4.3,0.2-6.5,2.6V42z M216.1,42.2
	c0,1.5,0.6,1.8,2.7,1.9v1.2h-9.9v-1.1c2-0.1,2.7-0.4,2.7-1.9V17.4L209,16v-0.6l6.4-2h0.7V42.2z M238.2,31.8v0.9h-13.4
	c-0.2,6.2,2.9,9.8,7,9.8c2.5,0.1,4.9-1.3,6.1-3.5l0.5,0.3c-0.8,3.9-4.3,6.6-8.3,6.4c-5.9,0-9.5-4.5-9.5-10.5
	c0-6.8,4.2-11.6,9.6-11.6C235.4,23.6,238.2,27.1,238.2,31.8z M224.9,31.4h9c0-3.7-1.1-6.4-4.1-6.4S225.2,27.7,224.9,31.4z
	 M241.6,43.7l-0.2-5.6h1.3c1,3.6,3,6.3,6.1,6.3c2.3,0,4.1-1.2,4.1-3.6s-1.5-3.2-5-4.5c-4.2-1.5-6.3-3.1-6.3-6.7
	c0-3.8,2.8-6.1,7.1-6.1c2.3,0,4.5,0.5,6.4,1.7v4.9h-1.2c-0.7-3-2.4-5.4-5.3-5.4c-2.2,0-3.5,1.3-3.5,3.2c0,2,1.3,3,4.7,4.3
	c4.2,1.5,6.7,3.2,6.7,6.9c0,4.1-3.1,6.5-7.8,6.5C246.1,45.8,243.7,45.1,241.6,43.7z M268.6,43.1l-0.3-7h1.4c0.9,5.1,3.5,8.2,7.6,8.2
	c3.6,0,5.8-2,5.8-5c0-3.2-1.8-4.5-6.9-6.5c-4.4-1.8-7.6-3.7-7.6-8.5c0-4.6,3.5-8,9-8c2.9-0.1,5.8,0.7,8.3,2.4v6.1h-1.4
	c-0.6-4.5-3-7-7-7c-3.1,0-4.9,1.9-4.9,4.6c0,3,1.5,4.2,6,5.9c5.5,2.2,8.6,4.3,8.6,9.1c0,5.4-4.5,8.3-9.9,8.3
	C274.3,45.8,271.2,44.9,268.6,43.1z M296.5,24h5.6v1.7h-5.6v13.5c0,2.8,1,3.9,3.1,3.9c1.1,0,2.3-0.4,3.1-1.2l0.5,0.6
	c-1.2,2-3.4,3.2-5.8,3.2c-3.1,0-5.5-1.7-5.5-6.1v-14h-2.6v-0.7c2.6-1.4,4.7-3.5,6.2-6.1h1L296.5,24z M323.8,41.2
	c0,1.4,0.1,1.8,1.8,1.9l1.1,0.1v1.1l-6.7,1.5h-0.8l0.2-3.9c-1.9,2-4,3.9-7,3.9c-3.5,0-5.7-2-5.7-6.5v-11c0-1.4-0.3-1.9-2.1-2.2
	l-0.6-0.1v-1.1l6.8-1.3h0.7l-0.2,4.7v10.3c0,2.8,1,4.4,3.4,4.4c1.8-0.1,3.5-0.8,4.8-2V28.3c0-1.4-0.3-1.9-2.1-2.2l-0.6-0.1v-1.1
	l6.7-1.3h0.7l-0.2,4.5L323.8,41.2z M335.7,42c0,1.6,0.9,1.9,3.5,2.1v1.2h-10.8v-1.1c2-0.1,2.7-0.4,2.7-1.9V27.7l-2.6-1.4v-0.6
	l6.6-2.1h0.7l-0.2,5.9c2.1-4.3,3.2-5.9,5.5-5.9c0.6,0,1.2,0.2,1.7,0.6v3.7h-0.7c-2.5,0-4.3,0.2-6.5,2.6L335.7,42z M351.4,24h5.6v1.7
	h-5.6v13.5c0,2.8,1,3.9,3.1,3.9c1.1,0,2.3-0.4,3.1-1.2l0.5,0.6c-1.2,2-3.4,3.2-5.7,3.2c-3.1,0-5.5-1.7-5.5-6.1v-14h-2.6v-0.7
	c2.6-1.4,4.7-3.5,6.1-6.1h1V24z M129.4,75.9c0,5.1,2.4,8.2,6.8,8.2c5,0,8.1-2.5,8.1-8.5v-14c0-2.3-0.6-2.6-4-2.9v-1.2h9.2v1.2
	c-2.9,0.4-3.5,0.7-3.5,2.9v14.7c0,6.9-4.6,10.1-10.5,10.1c-6.8,0-11.1-3.3-11.1-10.3V61.6c0-2.3-0.5-2.5-3.5-2.9v-1.2h11.7v1.2
	c-3,0.4-3.5,0.6-3.5,2.9L129.4,75.9z M166.4,71.1c0-2.7-1.1-4-3.4-4c-1.9,0.1-3.7,0.9-5.1,2.1v13.8c0,1.5,0.6,1.8,2.6,1.9V86h-9.9
	v-1.2c2-0.1,2.7-0.4,2.7-1.9V68.4l-2.6-1.4v-0.6l6.6-2.1h0.7l-0.2,3.9c1.8-2.1,4.2-3.9,7.5-3.9c3.8,0,5.7,2.2,5.7,6.6v12.1
	c0,1.5,0.6,1.8,2.7,1.9V86h-9.9v-1.2c2-0.1,2.7-0.4,2.7-1.9L166.4,71.1z M182.6,82.9c0,1.5,0.7,1.8,2.7,1.9V86h-9.9v-1.2
	c2-0.1,2.7-0.4,2.7-1.9V68.4l-2.6-1.4v-0.6l6.5-2.1h0.6L182.6,82.9z M177.4,58.5c0-1.6,1.2-2.9,2.8-2.9c0,0,0.1,0,0.1,0
	c1.6,0,2.9,1.3,2.9,2.9c0,1.6-1.3,2.9-2.9,2.9c0,0,0,0,0,0C178.7,61.4,177.4,60.1,177.4,58.5C177.4,58.6,177.4,58.6,177.4,58.5
	L177.4,58.5z M207.8,65.9c-1.5,0.4-1.7,0.7-2.1,1.5l-7.9,19h-1.2l-8.6-19c-0.4-0.9-0.6-1.1-2.1-1.5v-1.2h10v1.2
	c-2.1,0.2-2.8,0.4-2.8,1.3c0,0.4,0.1,0.8,0.2,1.1l5.2,12.4l4.9-12.4c0.2-0.3,0.3-0.7,0.3-1.1c0-0.9-0.8-1.1-2.9-1.3v-1.2h6.8
	L207.8,65.9z M225.8,72.6v0.9h-13.4c-0.2,6.2,2.9,9.8,7,9.8c2.5,0.1,4.9-1.3,6.1-3.5l0.5,0.3c-0.8,3.9-4.3,6.6-8.3,6.4
	c-5.9,0-9.4-4.5-9.4-10.5c0-6.8,4.2-11.7,9.6-11.7C223.1,64.3,225.9,67.8,225.8,72.6L225.8,72.6z M212.5,72.1h9
	c0-3.7-1.1-6.4-4.1-6.4S212.9,68.4,212.5,72.1L212.5,72.1z M235.4,82.8c0,1.6,0.9,1.9,3.6,2.1v1.2h-10.9v-1.2c2-0.1,2.7-0.4,2.7-1.9
	V68.4l-2.6-1.4v-0.6l6.6-2.1h0.7l-0.1,5.9c2.1-4.3,3.2-5.9,5.5-5.9c0.6,0,1.2,0.2,1.7,0.7v3.7H242c-2.5,0-4.3,0.2-6.5,2.6
	L235.4,82.8z M245.1,84.5l-0.2-5.6h1.3c1,3.6,3,6.3,6.1,6.3c2.3,0,4.1-1.2,4.1-3.6s-1.5-3.2-5-4.5c-4.2-1.5-6.3-3.1-6.3-6.7
	c0-3.8,2.8-6.1,7.1-6.1c2.3,0,4.5,0.5,6.4,1.7v4.9h-1.2c-0.7-3-2.4-5.4-5.3-5.4c-2.2,0-3.5,1.3-3.5,3.2c0,2,1.3,3,4.7,4.3
	c4.2,1.5,6.6,3.2,6.6,6.9c0,4.1-3.1,6.6-7.8,6.6C249.6,86.5,247.1,85.8,245.1,84.5L245.1,84.5z M270,82.9c0,1.5,0.6,1.8,2.7,1.9V86
	h-9.9v-1.2c2-0.1,2.7-0.4,2.7-1.9V68.4l-2.6-1.4v-0.6l6.5-2.1h0.7V82.9z M264.7,58.5c0-1.6,1.2-2.9,2.8-2.9c0,0,0.1,0,0.1,0
	c1.6,0,2.9,1.3,2.9,2.9c0,1.6-1.3,2.9-2.9,2.9c0,0,0,0,0,0c-1.6,0.1-2.9-1.2-2.9-2.7C264.6,58.6,264.6,58.6,264.7,58.5L264.7,58.5z
	 M281.1,64.7h5.6v1.7h-5.6v13.5c0,2.8,1,3.9,3.1,3.9c1.1,0,2.3-0.4,3.1-1.2l0.5,0.6c-1.2,2-3.4,3.2-5.8,3.2c-3.1,0-5.5-1.7-5.5-6.1
	v-14h-2.6v-0.7c2.6-1.4,4.7-3.5,6.2-6.1h1L281.1,64.7z M305.6,68.4c0.1-0.4,0.2-0.7,0.2-1.1c0-0.9-0.7-1.1-2.8-1.3v-1.2h6.8v1.2
	c-1.5,0.4-1.8,0.7-2.1,1.5l-8.8,22.7c-1.2,3.1-2.5,4.8-5,4.8c-1.3,0.1-2.5-0.8-3-2v-1.6c0.8,0.3,1.7,0.4,2.5,0.4
	c2.2,0,3.6-0.6,4.5-3.1l0.7-2l-8.4-19.3c-0.4-0.9-0.6-1.1-2.1-1.5v-1.1h9.9v1.2c-2.1,0.2-2.8,0.4-2.8,1.3c0,0.4,0.1,0.8,0.2,1.1
	l5.2,13L305.6,68.4z M21,18.5c7.4,0,16.5-3,23-6.6H11.8v5.8C14.5,18.3,16.8,18.5,21,18.5 M70.6,36.5c-7.4,0-16.5,3-23,6.7h32.2v-5.8
	C76.7,36.6,73.6,36.3,70.6,36.5 M79.7,31.5c-3.2-0.6-6.5-0.9-9.7-0.9c-10,0-17.1,3.8-24.4,7.1c-6.5,2.7-13.4,5.5-23.6,5.5
	c-3.4,0-6.8-0.3-10.2-1v-6.2c3.2,0.6,6.5,0.9,9.7,0.9c11.4,0,16.8-3,23.2-5.8c7.7-3.2,14.8-6.9,25.5-6.9c3.2,0,6.3,0.3,9.4,1
	L79.7,31.5z M79.7,19.1c-3.2-0.6-6.5-0.9-9.7-0.9c-10.3,0-17.4,3.2-25,6.5c-6.3,2.8-13.1,6.2-23,6.2c-3.4,0-6.8-0.3-10.2-1v-6.4
	c3.2,0.6,6.5,0.9,9.7,0.9c9.6,0,16.4-3.5,22.6-6.4c7.8-3.4,15.2-6.2,26.1-6.2c3.2,0,6.3,0.3,9.4,1L79.7,19.1z M85.6,57.7
	c0,22-17.9,39.9-39.9,39.9c-22,0-39.8-17.8-39.9-39.9V5.9h79.7L85.6,57.7z M18.1,49h-6.3v8.7c-0.1,7.2,2.1,14.1,6.3,19.9L18.1,49z
	 M0,0v57.7c-0.1,25.1,20,45.5,45.1,45.6c0.2,0,0.3,0,0.5,0c25.1,0.2,45.6-20,45.8-45c0-0.2,0-0.4,0-0.6V0H0z M36.4,90.3
	c2,0.7,4.2,1.1,6.3,1.2V49h-6.3V90.3z M24,84c2,1.6,4.2,3,6.5,4.2V49h-6.5L24,84z M77,49H51.2l13,6L77,49z M48.7,54.3v7.1l15.5,7.1
	l15.5-6.9v-7.2l-15.5,7.2L48.7,54.3z M48.7,67.9V75l15.5,7.1l8.9-4c2.2-2.9,3.8-6.1,5-9.4l-13.9,6.5L48.7,67.9z M48.7,91.5
	c4.7-0.4,9.3-1.7,13.4-4l-13.4-6V91.5z"/>
</svg>
